solid cylinder
  facet normal -9.977669e-01 -0.000000e+00 -6.679255e-02
    outer loop
      vertex   -2.477694e-01 9.000000e-01 -3.332174e-02
      vertex   -2.477694e-01 0.000000e+00 -3.332174e-02
      vertex   -2.500000e-01 9.000000e-01 0.000000e+00
    endloop
  endfacet
  facet normal -9.977669e-01 -0.000000e+00 -6.679255e-02
    outer loop
      vertex   -2.500000e-01 9.000000e-01 0.000000e+00
      vertex   -2.477694e-01 0.000000e+00 -3.332174e-02
      vertex   -2.500000e-01 0.000000e+00 0.000000e+00
    endloop
  endfacet
  facet normal -9.977669e-01 0.000000e+00 6.679255e-02
    outer loop
      vertex   -2.500000e-01 9.000000e-01 0.000000e+00
      vertex   -2.500000e-01 0.000000e+00 0.000000e+00
      vertex   -2.477694e-01 9.000000e-01 3.332174e-02
    endloop
  endfacet
  facet normal -9.977669e-01 0.000000e+00 6.679255e-02
    outer loop
      vertex   -2.477694e-01 9.000000e-01 3.332174e-02
      vertex   -2.500000e-01 0.000000e+00 0.000000e+00
      vertex   -2.477694e-01 0.000000e+00 3.332174e-02
    endloop
  endfacet
  facet normal -9.799616e-01 0.000000e+00 1.991863e-01
    outer loop
      vertex   -2.477694e-01 9.000000e-01 3.332174e-02
      vertex   -2.477694e-01 0.000000e+00 3.332174e-02
      vertex   -2.411173e-01 9.000000e-01 6.604885e-02
    endloop
  endfacet
  facet normal -9.799616e-01 0.000000e+00 1.991863e-01
    outer loop
      vertex   -2.411173e-01 9.000000e-01 6.604885e-02
      vertex   -2.477694e-01 0.000000e+00 3.332174e-02
      vertex   -2.411173e-01 0.000000e+00 6.604885e-02
    endloop
  endfacet
  facet normal -9.446691e-01 0.000000e+00 3.280247e-01
    outer loop
      vertex   -2.411173e-01 9.000000e-01 6.604885e-02
      vertex   -2.411173e-01 0.000000e+00 6.604885e-02
      vertex   -2.301625e-01 9.000000e-01 9.759732e-02
    endloop
  endfacet
  facet normal -9.446691e-01 0.000000e+00 3.280247e-01
    outer loop
      vertex   -2.301625e-01 9.000000e-01 9.759732e-02
      vertex   -2.411173e-01 0.000000e+00 6.604885e-02
      vertex   -2.301625e-01 0.000000e+00 9.759732e-02
    endloop
  endfacet
  facet normal -8.925190e-01 0.000000e+00 4.510098e-01
    outer loop
      vertex   -2.301625e-01 9.000000e-01 9.759732e-02
      vertex   -2.301625e-01 0.000000e+00 9.759732e-02
      vertex   -2.151004e-01 9.000000e-01 1.274042e-01
    endloop
  endfacet
  facet normal -8.925190e-01 0.000000e+00 4.510098e-01
    outer loop
      vertex   -2.151004e-01 9.000000e-01 1.274042e-01
      vertex   -2.301625e-01 0.000000e+00 9.759732e-02
      vertex   -2.151004e-01 0.000000e+00 1.274042e-01
    endloop
  endfacet
  facet normal -8.244415e-01 0.000000e+00 5.659472e-01
    outer loop
      vertex   -2.151004e-01 9.000000e-01 1.274042e-01
      vertex   -2.151004e-01 0.000000e+00 1.274042e-01
      vertex   -1.961999e-01 9.000000e-01 1.549375e-01
    endloop
  endfacet
  facet normal -8.244415e-01 0.000000e+00 5.659472e-01
    outer loop
      vertex   -1.961999e-01 9.000000e-01 1.549375e-01
      vertex   -2.151004e-01 0.000000e+00 1.274042e-01
      vertex   -1.961999e-01 0.000000e+00 1.549375e-01
    endloop
  endfacet
  facet normal -7.416520e-01 0.000000e+00 6.707848e-01
    outer loop
      vertex   -1.961999e-01 9.000000e-01 1.549375e-01
      vertex   -1.961999e-01 0.000000e+00 1.549375e-01
      vertex   -1.737981e-01 9.000000e-01 1.797059e-01
    endloop
  endfacet
  facet normal -7.416520e-01 0.000000e+00 6.707848e-01
    outer loop
      vertex   -1.737981e-01 9.000000e-01 1.797059e-01
      vertex   -1.961999e-01 0.000000e+00 1.549375e-01
      vertex   -1.737981e-01 0.000000e+00 1.797059e-01
    endloop
  endfacet
  facet normal -6.456278e-01 0.000000e+00 7.636523e-01
    outer loop
      vertex   -1.737981e-01 9.000000e-01 1.797059e-01
      vertex   -1.737981e-01 0.000000e+00 1.797059e-01
      vertex   -1.482949e-01 9.000000e-01 2.012675e-01
    endloop
  endfacet
  facet normal -6.456278e-01 0.000000e+00 7.636523e-01
    outer loop
      vertex   -1.482949e-01 9.000000e-01 2.012675e-01
      vertex   -1.737981e-01 0.000000e+00 1.797059e-01
      vertex   -1.482949e-01 0.000000e+00 2.012675e-01
    endloop
  endfacet
  facet normal -5.380824e-01 0.000000e+00 8.428923e-01
    outer loop
      vertex   -1.482949e-01 9.000000e-01 2.012675e-01
      vertex   -1.482949e-01 0.000000e+00 2.012675e-01
      vertex   -1.201454e-01 9.000000e-01 2.192375e-01
    endloop
  endfacet
  facet normal -5.380824e-01 0.000000e+00 8.428923e-01
    outer loop
      vertex   -1.201454e-01 9.000000e-01 2.192375e-01
      vertex   -1.482949e-01 0.000000e+00 2.012675e-01
      vertex   -1.201454e-01 0.000000e+00 2.192375e-01
    endloop
  endfacet
  facet normal -4.209349e-01 0.000000e+00 9.070909e-01
    outer loop
      vertex   -1.201454e-01 9.000000e-01 2.192375e-01
      vertex   -1.201454e-01 0.000000e+00 2.192375e-01
      vertex   -8.985194e-02 9.000000e-01 2.332952e-01
    endloop
  endfacet
  facet normal -4.209349e-01 0.000000e+00 9.070909e-01
    outer loop
      vertex   -8.985194e-02 9.000000e-01 2.332952e-01
      vertex   -1.201454e-01 0.000000e+00 2.192375e-01
      vertex   -8.985194e-02 0.000000e+00 2.332952e-01
    endloop
  endfacet
  facet normal -2.962753e-01 0.000000e+00 9.551026e-01
    outer loop
      vertex   -8.985194e-02 9.000000e-01 2.332952e-01
      vertex   -8.985194e-02 0.000000e+00 2.332952e-01
      vertex   -5.795504e-02 9.000000e-01 2.431897e-01
    endloop
  endfacet
  facet normal -2.962753e-01 0.000000e+00 9.551026e-01
    outer loop
      vertex   -5.795504e-02 9.000000e-01 2.431897e-01
      vertex   -8.985194e-02 0.000000e+00 2.332952e-01
      vertex   -5.795504e-02 0.000000e+00 2.431897e-01
    endloop
  endfacet
  facet normal -1.663294e-01 0.000000e+00 9.860702e-01
    outer loop
      vertex   -5.795504e-02 9.000000e-01 2.431897e-01
      vertex   -5.795504e-02 0.000000e+00 2.431897e-01
      vertex   -2.502392e-02 9.000000e-01 2.487444e-01
    endloop
  endfacet
  facet normal -1.663294e-01 0.000000e+00 9.860702e-01
    outer loop
      vertex   -2.502392e-02 9.000000e-01 2.487444e-01
      vertex   -5.795504e-02 0.000000e+00 2.431897e-01
      vertex   -2.502392e-02 0.000000e+00 2.487444e-01
    endloop
  endfacet
  facet normal -3.341484e-02 0.000000e+00 9.994416e-01
    outer loop
      vertex   -2.502392e-02 9.000000e-01 2.487444e-01
      vertex   -2.502392e-02 0.000000e+00 2.487444e-01
      vertex   8.353744e-03 9.000000e-01 2.498604e-01
    endloop
  endfacet
  facet normal -3.341484e-02 0.000000e+00 9.994416e-01
    outer loop
      vertex   8.353744e-03 9.000000e-01 2.498604e-01
      vertex   -2.502392e-02 0.000000e+00 2.487444e-01
      vertex   8.353744e-03 0.000000e+00 2.498604e-01
    endloop
  endfacet
  facet normal 1.000955e-01 0.000000e+00 9.949778e-01
    outer loop
      vertex   8.353744e-03 9.000000e-01 2.498604e-01
      vertex   8.353744e-03 0.000000e+00 2.498604e-01
      vertex   4.158234e-02 9.000000e-01 2.465176e-01
    endloop
  endfacet
  facet normal 1.000955e-01 0.000000e+00 9.949778e-01
    outer loop
      vertex   4.158234e-02 9.000000e-01 2.465176e-01
      vertex   8.353744e-03 0.000000e+00 2.498604e-01
      vertex   4.158234e-02 0.000000e+00 2.465176e-01
    endloop
  endfacet
  facet normal 2.318204e-01 0.000000e+00 9.727586e-01
    outer loop
      vertex   4.158234e-02 9.000000e-01 2.465176e-01
      vertex   4.158234e-02 0.000000e+00 2.465176e-01
      vertex   7.406889e-02 9.000000e-01 2.387756e-01
    endloop
  endfacet
  facet normal 2.318204e-01 0.000000e+00 9.727586e-01
    outer loop
      vertex   7.406889e-02 9.000000e-01 2.387756e-01
      vertex   4.158234e-02 0.000000e+00 2.465176e-01
      vertex   7.406889e-02 0.000000e+00 2.387756e-01
    endloop
  endfacet
  facet normal 3.594076e-01 0.000000e+00 9.331807e-01
    outer loop
      vertex   7.406889e-02 9.000000e-01 2.387756e-01
      vertex   7.406889e-02 0.000000e+00 2.387756e-01
      vertex   1.052337e-01 9.000000e-01 2.267727e-01
    endloop
  endfacet
  facet normal 3.594076e-01 0.000000e+00 9.331807e-01
    outer loop
      vertex   1.052337e-01 9.000000e-01 2.267727e-01
      vertex   7.406889e-02 0.000000e+00 2.387756e-01
      vertex   1.052337e-01 0.000000e+00 2.267727e-01
    endloop
  endfacet
  facet normal 4.805815e-01 0.000000e+00 8.769500e-01
    outer loop
      vertex   1.052337e-01 9.000000e-01 2.267727e-01
      vertex   1.052337e-01 0.000000e+00 2.267727e-01
      vertex   1.345206e-01 9.000000e-01 2.107231e-01
    endloop
  endfacet
  facet normal 4.805815e-01 0.000000e+00 8.769500e-01
    outer loop
      vertex   1.345206e-01 9.000000e-01 2.107231e-01
      vertex   1.052337e-01 0.000000e+00 2.267727e-01
      vertex   1.345206e-01 0.000000e+00 2.107231e-01
    endloop
  endfacet
  facet normal 5.931800e-01 0.000000e+00 8.050698e-01
    outer loop
      vertex   1.345206e-01 9.000000e-01 2.107231e-01
      vertex   1.345206e-01 0.000000e+00 2.107231e-01
      vertex   1.614070e-01 9.000000e-01 1.909130e-01
    endloop
  endfacet
  facet normal 5.931800e-01 0.000000e+00 8.050698e-01
    outer loop
      vertex   1.614070e-01 9.000000e-01 1.909130e-01
      vertex   1.345206e-01 0.000000e+00 2.107231e-01
      vertex   1.614070e-01 0.000000e+00 1.909130e-01
    endloop
  endfacet
  facet normal 6.951923e-01 0.000000e+00 7.188238e-01
    outer loop
      vertex   1.614070e-01 9.000000e-01 1.909130e-01
      vertex   1.614070e-01 0.000000e+00 1.909130e-01
      vertex   1.854130e-01 9.000000e-01 1.676962e-01
    endloop
  endfacet
  facet normal 6.951923e-01 0.000000e+00 7.188238e-01
    outer loop
      vertex   1.854130e-01 9.000000e-01 1.676962e-01
      vertex   1.614070e-01 0.000000e+00 1.909130e-01
      vertex   1.854130e-01 0.000000e+00 1.676962e-01
    endloop
  endfacet
  facet normal 7.847994e-01 0.000000e+00 6.197499e-01
    outer loop
      vertex   1.854130e-01 9.000000e-01 1.676962e-01
      vertex   1.854130e-01 0.000000e+00 1.676962e-01
      vertex   2.061104e-01 9.000000e-01 1.414868e-01
    endloop
  endfacet
  facet normal 7.847994e-01 0.000000e+00 6.197499e-01
    outer loop
      vertex   2.061104e-01 9.000000e-01 1.414868e-01
      vertex   1.854130e-01 0.000000e+00 1.676962e-01
      vertex   2.061104e-01 0.000000e+00 1.414868e-01
    endloop
  endfacet
  facet normal 8.604015e-01 0.000000e+00 5.096168e-01
    outer loop
      vertex   2.061104e-01 9.000000e-01 1.414868e-01
      vertex   2.061104e-01 0.000000e+00 1.414868e-01
      vertex   2.231297e-01 9.000000e-01 1.127525e-01
    endloop
  endfacet
  facet normal 8.604015e-01 0.000000e+00 5.096168e-01
    outer loop
      vertex   2.231297e-01 9.000000e-01 1.127525e-01
      vertex   2.061104e-01 0.000000e+00 1.414868e-01
      vertex   2.231297e-01 0.000000e+00 1.127525e-01
    endloop
  endfacet
  facet normal 9.206499e-01 0.000000e+00 3.903893e-01
    outer loop
      vertex   2.231297e-01 9.000000e-01 1.127525e-01
      vertex   2.231297e-01 0.000000e+00 1.127525e-01
      vertex   2.361673e-01 9.000000e-01 8.200622e-02
    endloop
  endfacet
  facet normal 9.206499e-01 0.000000e+00 3.903893e-01
    outer loop
      vertex   2.361673e-01 9.000000e-01 8.200622e-02
      vertex   2.231297e-01 0.000000e+00 1.127525e-01
      vertex   2.361673e-01 0.000000e+00 8.200622e-02
    endloop
  endfacet
  facet normal 9.644692e-01 0.000000e+00 2.641952e-01
    outer loop
      vertex   2.361673e-01 9.000000e-01 8.200622e-02
      vertex   2.361673e-01 0.000000e+00 8.200622e-02
      vertex   2.449904e-01 9.000000e-01 4.979650e-02
    endloop
  endfacet
  facet normal 9.644692e-01 0.000000e+00 2.641952e-01
    outer loop
      vertex   2.449904e-01 9.000000e-01 4.979650e-02
      vertex   2.361673e-01 0.000000e+00 8.200622e-02
      vertex   2.449904e-01 0.000000e+00 4.979650e-02
    endloop
  endfacet
  facet normal 9.910775e-01 0.000000e+00 1.332870e-01
    outer loop
      vertex   2.449904e-01 9.000000e-01 4.979650e-02
      vertex   2.449904e-01 0.000000e+00 4.979650e-02
      vertex   2.494417e-01 9.000000e-01 1.669816e-02
    endloop
  endfacet
  facet normal 9.910775e-01 0.000000e+00 1.332870e-01
    outer loop
      vertex   2.494417e-01 9.000000e-01 1.669816e-02
      vertex   2.449904e-01 0.000000e+00 4.979650e-02
      vertex   2.494417e-01 0.000000e+00 1.669816e-02
    endloop
  endfacet
  facet normal 1.000000e+00 0.000000e+00 0.000000e+00
    outer loop
      vertex   2.494417e-01 9.000000e-01 1.669816e-02
      vertex   2.494417e-01 0.000000e+00 1.669816e-02
      vertex   2.494417e-01 9.000000e-01 -1.669816e-02
    endloop
  endfacet
  facet normal 1.000000e+00 0.000000e+00 0.000000e+00
    outer loop
      vertex   2.494417e-01 9.000000e-01 -1.669816e-02
      vertex   2.494417e-01 0.000000e+00 1.669816e-02
      vertex   2.494417e-01 0.000000e+00 -1.669816e-02
    endloop
  endfacet
  facet normal 9.910775e-01 0.000000e+00 -1.332870e-01
    outer loop
      vertex   2.494417e-01 9.000000e-01 -1.669816e-02
      vertex   2.494417e-01 0.000000e+00 -1.669816e-02
      vertex   2.449904e-01 9.000000e-01 -4.979650e-02
    endloop
  endfacet
  facet normal 9.910775e-01 0.000000e+00 -1.332870e-01
    outer loop
      vertex   2.449904e-01 9.000000e-01 -4.979650e-02
      vertex   2.494417e-01 0.000000e+00 -1.669816e-02
      vertex   2.449904e-01 0.000000e+00 -4.979650e-02
    endloop
  endfacet
  facet normal 9.644692e-01 0.000000e+00 -2.641952e-01
    outer loop
      vertex   2.449904e-01 9.000000e-01 -4.979650e-02
      vertex   2.449904e-01 0.000000e+00 -4.979650e-02
      vertex   2.361673e-01 9.000000e-01 -8.200622e-02
    endloop
  endfacet
  facet normal 9.644692e-01 0.000000e+00 -2.641952e-01
    outer loop
      vertex   2.361673e-01 9.000000e-01 -8.200622e-02
      vertex   2.449904e-01 0.000000e+00 -4.979650e-02
      vertex   2.361673e-01 0.000000e+00 -8.200622e-02
    endloop
  endfacet
  facet normal 9.206499e-01 0.000000e+00 -3.903893e-01
    outer loop
      vertex   2.361673e-01 9.000000e-01 -8.200622e-02
      vertex   2.361673e-01 0.000000e+00 -8.200622e-02
      vertex   2.231297e-01 9.000000e-01 -1.127525e-01
    endloop
  endfacet
  facet normal 9.206499e-01 0.000000e+00 -3.903893e-01
    outer loop
      vertex   2.231297e-01 9.000000e-01 -1.127525e-01
      vertex   2.361673e-01 0.000000e+00 -8.200622e-02
      vertex   2.231297e-01 0.000000e+00 -1.127525e-01
    endloop
  endfacet
  facet normal 8.604015e-01 0.000000e+00 -5.096168e-01
    outer loop
      vertex   2.231297e-01 9.000000e-01 -1.127525e-01
      vertex   2.231297e-01 0.000000e+00 -1.127525e-01
      vertex   2.061104e-01 9.000000e-01 -1.414868e-01
    endloop
  endfacet
  facet normal 8.604015e-01 0.000000e+00 -5.096168e-01
    outer loop
      vertex   2.061104e-01 9.000000e-01 -1.414868e-01
      vertex   2.231297e-01 0.000000e+00 -1.127525e-01
      vertex   2.061104e-01 0.000000e+00 -1.414868e-01
    endloop
  endfacet
  facet normal 7.847994e-01 0.000000e+00 -6.197499e-01
    outer loop
      vertex   2.061104e-01 9.000000e-01 -1.414868e-01
      vertex   2.061104e-01 0.000000e+00 -1.414868e-01
      vertex   1.854130e-01 9.000000e-01 -1.676962e-01
    endloop
  endfacet
  facet normal 7.847994e-01 0.000000e+00 -6.197499e-01
    outer loop
      vertex   1.854130e-01 9.000000e-01 -1.676962e-01
      vertex   2.061104e-01 0.000000e+00 -1.414868e-01
      vertex   1.854130e-01 0.000000e+00 -1.676962e-01
    endloop
  endfacet
  facet normal 6.951923e-01 0.000000e+00 -7.188238e-01
    outer loop
      vertex   1.854130e-01 9.000000e-01 -1.676962e-01
      vertex   1.854130e-01 0.000000e+00 -1.676962e-01
      vertex   1.614070e-01 9.000000e-01 -1.909130e-01
    endloop
  endfacet
  facet normal 6.951923e-01 0.000000e+00 -7.188238e-01
    outer loop
      vertex   1.614070e-01 9.000000e-01 -1.909130e-01
      vertex   1.854130e-01 0.000000e+00 -1.676962e-01
      vertex   1.614070e-01 0.000000e+00 -1.909130e-01
    endloop
  endfacet
  facet normal 5.931800e-01 0.000000e+00 -8.050698e-01
    outer loop
      vertex   1.614070e-01 9.000000e-01 -1.909130e-01
      vertex   1.614070e-01 0.000000e+00 -1.909130e-01
      vertex   1.345206e-01 9.000000e-01 -2.107231e-01
    endloop
  endfacet
  facet normal 5.931800e-01 0.000000e+00 -8.050698e-01
    outer loop
      vertex   1.345206e-01 9.000000e-01 -2.107231e-01
      vertex   1.614070e-01 0.000000e+00 -1.909130e-01
      vertex   1.345206e-01 0.000000e+00 -2.107231e-01
    endloop
  endfacet
  facet normal 4.805815e-01 0.000000e+00 -8.769500e-01
    outer loop
      vertex   1.345206e-01 9.000000e-01 -2.107231e-01
      vertex   1.345206e-01 0.000000e+00 -2.107231e-01
      vertex   1.052337e-01 9.000000e-01 -2.267727e-01
    endloop
  endfacet
  facet normal 4.805815e-01 0.000000e+00 -8.769500e-01
    outer loop
      vertex   1.052337e-01 9.000000e-01 -2.267727e-01
      vertex   1.345206e-01 0.000000e+00 -2.107231e-01
      vertex   1.052337e-01 0.000000e+00 -2.267727e-01
    endloop
  endfacet
  facet normal 3.594076e-01 0.000000e+00 -9.331807e-01
    outer loop
      vertex   1.052337e-01 9.000000e-01 -2.267727e-01
      vertex   1.052337e-01 0.000000e+00 -2.267727e-01
      vertex   7.406889e-02 9.000000e-01 -2.387756e-01
    endloop
  endfacet
  facet normal 3.594076e-01 0.000000e+00 -9.331807e-01
    outer loop
      vertex   7.406889e-02 9.000000e-01 -2.387756e-01
      vertex   1.052337e-01 0.000000e+00 -2.267727e-01
      vertex   7.406889e-02 0.000000e+00 -2.387756e-01
    endloop
  endfacet
  facet normal 2.318204e-01 0.000000e+00 -9.727586e-01
    outer loop
      vertex   7.406889e-02 9.000000e-01 -2.387756e-01
      vertex   7.406889e-02 0.000000e+00 -2.387756e-01
      vertex   4.158234e-02 9.000000e-01 -2.465176e-01
    endloop
  endfacet
  facet normal 2.318204e-01 0.000000e+00 -9.727586e-01
    outer loop
      vertex   4.158234e-02 9.000000e-01 -2.465176e-01
      vertex   7.406889e-02 0.000000e+00 -2.387756e-01
      vertex   4.158234e-02 0.000000e+00 -2.465176e-01
    endloop
  endfacet
  facet normal 1.000955e-01 0.000000e+00 -9.949778e-01
    outer loop
      vertex   4.158234e-02 9.000000e-01 -2.465176e-01
      vertex   4.158234e-02 0.000000e+00 -2.465176e-01
      vertex   8.353744e-03 9.000000e-01 -2.498604e-01
    endloop
  endfacet
  facet normal 1.000955e-01 0.000000e+00 -9.949778e-01
    outer loop
      vertex   8.353744e-03 9.000000e-01 -2.498604e-01
      vertex   4.158234e-02 0.000000e+00 -2.465176e-01
      vertex   8.353744e-03 0.000000e+00 -2.498604e-01
    endloop
  endfacet
  facet normal -3.341484e-02 -0.000000e+00 -9.994416e-01
    outer loop
      vertex   8.353744e-03 9.000000e-01 -2.498604e-01
      vertex   8.353744e-03 0.000000e+00 -2.498604e-01
      vertex   -2.502392e-02 9.000000e-01 -2.487444e-01
    endloop
  endfacet
  facet normal -3.341484e-02 -0.000000e+00 -9.994416e-01
    outer loop
      vertex   -2.502392e-02 9.000000e-01 -2.487444e-01
      vertex   8.353744e-03 0.000000e+00 -2.498604e-01
      vertex   -2.502392e-02 0.000000e+00 -2.487444e-01
    endloop
  endfacet
  facet normal -1.663294e-01 -0.000000e+00 -9.860702e-01
    outer loop
      vertex   -2.502392e-02 9.000000e-01 -2.487444e-01
      vertex   -2.502392e-02 0.000000e+00 -2.487444e-01
      vertex   -5.795504e-02 9.000000e-01 -2.431897e-01
    endloop
  endfacet
  facet normal -1.663294e-01 -0.000000e+00 -9.860702e-01
    outer loop
      vertex   -5.795504e-02 9.000000e-01 -2.431897e-01
      vertex   -2.502392e-02 0.000000e+00 -2.487444e-01
      vertex   -5.795504e-02 0.000000e+00 -2.431897e-01
    endloop
  endfacet
  facet normal -2.962753e-01 -0.000000e+00 -9.551026e-01
    outer loop
      vertex   -5.795504e-02 9.000000e-01 -2.431897e-01
      vertex   -5.795504e-02 0.000000e+00 -2.431897e-01
      vertex   -8.985194e-02 9.000000e-01 -2.332952e-01
    endloop
  endfacet
  facet normal -2.962753e-01 -0.000000e+00 -9.551026e-01
    outer loop
      vertex   -8.985194e-02 9.000000e-01 -2.332952e-01
      vertex   -5.795504e-02 0.000000e+00 -2.431897e-01
      vertex   -8.985194e-02 0.000000e+00 -2.332952e-01
    endloop
  endfacet
  facet normal -4.209349e-01 -0.000000e+00 -9.070909e-01
    outer loop
      vertex   -8.985194e-02 9.000000e-01 -2.332952e-01
      vertex   -8.985194e-02 0.000000e+00 -2.332952e-01
      vertex   -1.201454e-01 9.000000e-01 -2.192375e-01
    endloop
  endfacet
  facet normal -4.209349e-01 -0.000000e+00 -9.070909e-01
    outer loop
      vertex   -1.201454e-01 9.000000e-01 -2.192375e-01
      vertex   -8.985194e-02 0.000000e+00 -2.332952e-01
      vertex   -1.201454e-01 0.000000e+00 -2.192375e-01
    endloop
  endfacet
  facet normal -5.380824e-01 -0.000000e+00 -8.428923e-01
    outer loop
      vertex   -1.201454e-01 9.000000e-01 -2.192375e-01
      vertex   -1.201454e-01 0.000000e+00 -2.192375e-01
      vertex   -1.482949e-01 9.000000e-01 -2.012675e-01
    endloop
  endfacet
  facet normal -5.380824e-01 -0.000000e+00 -8.428923e-01
    outer loop
      vertex   -1.482949e-01 9.000000e-01 -2.012675e-01
      vertex   -1.201454e-01 0.000000e+00 -2.192375e-01
      vertex   -1.482949e-01 0.000000e+00 -2.012675e-01
    endloop
  endfacet
  facet normal -6.456278e-01 -0.000000e+00 -7.636523e-01
    outer loop
      vertex   -1.482949e-01 9.000000e-01 -2.012675e-01
      vertex   -1.482949e-01 0.000000e+00 -2.012675e-01
      vertex   -1.737981e-01 9.000000e-01 -1.797059e-01
    endloop
  endfacet
  facet normal -6.456278e-01 -0.000000e+00 -7.636523e-01
    outer loop
      vertex   -1.737981e-01 9.000000e-01 -1.797059e-01
      vertex   -1.482949e-01 0.000000e+00 -2.012675e-01
      vertex   -1.737981e-01 0.000000e+00 -1.797059e-01
    endloop
  endfacet
  facet normal -7.416520e-01 -0.000000e+00 -6.707848e-01
    outer loop
      vertex   -1.737981e-01 9.000000e-01 -1.797059e-01
      vertex   -1.737981e-01 0.000000e+00 -1.797059e-01
      vertex   -1.961999e-01 9.000000e-01 -1.549375e-01
    endloop
  endfacet
  facet normal -7.416520e-01 -0.000000e+00 -6.707848e-01
    outer loop
      vertex   -1.961999e-01 9.000000e-01 -1.549375e-01
      vertex   -1.737981e-01 0.000000e+00 -1.797059e-01
      vertex   -1.961999e-01 0.000000e+00 -1.549375e-01
    endloop
  endfacet
  facet normal -8.244415e-01 -0.000000e+00 -5.659472e-01
    outer loop
      vertex   -1.961999e-01 9.000000e-01 -1.549375e-01
      vertex   -1.961999e-01 0.000000e+00 -1.549375e-01
      vertex   -2.151004e-01 9.000000e-01 -1.274042e-01
    endloop
  endfacet
  facet normal -8.244415e-01 -0.000000e+00 -5.659472e-01
    outer loop
      vertex   -2.151004e-01 9.000000e-01 -1.274042e-01
      vertex   -1.961999e-01 0.000000e+00 -1.549375e-01
      vertex   -2.151004e-01 0.000000e+00 -1.274042e-01
    endloop
  endfacet
  facet normal -8.925190e-01 -0.000000e+00 -4.510098e-01
    outer loop
      vertex   -2.151004e-01 9.000000e-01 -1.274042e-01
      vertex   -2.151004e-01 0.000000e+00 -1.274042e-01
      vertex   -2.301625e-01 9.000000e-01 -9.759732e-02
    endloop
  endfacet
  facet normal -8.925190e-01 -0.000000e+00 -4.510098e-01
    outer loop
      vertex   -2.301625e-01 9.000000e-01 -9.759732e-02
      vertex   -2.151004e-01 0.000000e+00 -1.274042e-01
      vertex   -2.301625e-01 0.000000e+00 -9.759732e-02
    endloop
  endfacet
  facet normal -9.446691e-01 -0.000000e+00 -3.280247e-01
    outer loop
      vertex   -2.301625e-01 9.000000e-01 -9.759732e-02
      vertex   -2.301625e-01 0.000000e+00 -9.759732e-02
      vertex   -2.411173e-01 9.000000e-01 -6.604885e-02
    endloop
  endfacet
  facet normal -9.446691e-01 -0.000000e+00 -3.280247e-01
    outer loop
      vertex   -2.411173e-01 9.000000e-01 -6.604885e-02
      vertex   -2.301625e-01 0.000000e+00 -9.759732e-02
      vertex   -2.411173e-01 0.000000e+00 -6.604885e-02
    endloop
  endfacet
  facet normal -9.799616e-01 -0.000000e+00 -1.991863e-01
    outer loop
      vertex   -2.411173e-01 9.000000e-01 -6.604885e-02
      vertex   -2.411173e-01 0.000000e+00 -6.604885e-02
      vertex   -2.477694e-01 9.000000e-01 -3.332174e-02
    endloop
  endfacet
  facet normal -9.799616e-01 -0.000000e+00 -1.991863e-01
    outer loop
      vertex   -2.477694e-01 9.000000e-01 -3.332174e-02
      vertex   -2.411173e-01 0.000000e+00 -6.604885e-02
      vertex   -2.477694e-01 0.000000e+00 -3.332174e-02
    endloop
  endfacet
  facet normal 0.000000e+00 -1.000000e+00 0.000000e+00
    outer loop
      vertex   -2.500000e-01 0.000000e+00 0.000000e+00
      vertex   -2.477694e-01 0.000000e+00 -3.332174e-02
      vertex   -2.477694e-01 0.000000e+00 3.332174e-02
    endloop
  endfacet
  facet normal 0.000000e+00 -1.000000e+00 0.000000e+00
    outer loop
      vertex   -2.477694e-01 0.000000e+00 3.332174e-02
      vertex   -2.477694e-01 0.000000e+00 -3.332174e-02
      vertex   -2.411173e-01 0.000000e+00 6.604885e-02
    endloop
  endfacet
  facet normal 0.000000e+00 -1.000000e+00 -0.000000e+00
    outer loop
      vertex   -2.411173e-01 0.000000e+00 6.604885e-02
      vertex   -2.477694e-01 0.000000e+00 -3.332174e-02
      vertex   -2.411173e-01 0.000000e+00 -6.604885e-02
    endloop
  endfacet
  facet normal 0.000000e+00 -1.000000e+00 0.000000e+00
    outer loop
      vertex   -2.411173e-01 0.000000e+00 6.604885e-02
      vertex   -2.411173e-01 0.000000e+00 -6.604885e-02
      vertex   -2.301625e-01 0.000000e+00 9.759732e-02
    endloop
  endfacet
  facet normal 0.000000e+00 -1.000000e+00 -0.000000e+00
    outer loop
      vertex   -2.301625e-01 0.000000e+00 9.759732e-02
      vertex   -2.411173e-01 0.000000e+00 -6.604885e-02
      vertex   -2.301625e-01 0.000000e+00 -9.759732e-02
    endloop
  endfacet
  facet normal 0.000000e+00 -1.000000e+00 0.000000e+00
    outer loop
      vertex   -2.301625e-01 0.000000e+00 9.759732e-02
      vertex   -2.301625e-01 0.000000e+00 -9.759732e-02
      vertex   -2.151004e-01 0.000000e+00 1.274042e-01
    endloop
  endfacet
  facet normal 0.000000e+00 -1.000000e+00 -0.000000e+00
    outer loop
      vertex   -2.151004e-01 0.000000e+00 1.274042e-01
      vertex   -2.301625e-01 0.000000e+00 -9.759732e-02
      vertex   -2.151004e-01 0.000000e+00 -1.274042e-01
    endloop
  endfacet
  facet normal 0.000000e+00 -1.000000e+00 0.000000e+00
    outer loop
      vertex   -2.151004e-01 0.000000e+00 1.274042e-01
      vertex   -2.151004e-01 0.000000e+00 -1.274042e-01
      vertex   -1.961999e-01 0.000000e+00 1.549375e-01
    endloop
  endfacet
  facet normal 0.000000e+00 -1.000000e+00 -0.000000e+00
    outer loop
      vertex   -1.961999e-01 0.000000e+00 1.549375e-01
      vertex   -2.151004e-01 0.000000e+00 -1.274042e-01
      vertex   -1.961999e-01 0.000000e+00 -1.549375e-01
    endloop
  endfacet
  facet normal 0.000000e+00 -1.000000e+00 0.000000e+00
    outer loop
      vertex   -1.961999e-01 0.000000e+00 1.549375e-01
      vertex   -1.961999e-01 0.000000e+00 -1.549375e-01
      vertex   -1.737981e-01 0.000000e+00 1.797059e-01
    endloop
  endfacet
  facet normal 0.000000e+00 -1.000000e+00 -0.000000e+00
    outer loop
      vertex   -1.737981e-01 0.000000e+00 1.797059e-01
      vertex   -1.961999e-01 0.000000e+00 -1.549375e-01
      vertex   -1.737981e-01 0.000000e+00 -1.797059e-01
    endloop
  endfacet
  facet normal 0.000000e+00 -1.000000e+00 0.000000e+00
    outer loop
      vertex   -1.737981e-01 0.000000e+00 1.797059e-01
      vertex   -1.737981e-01 0.000000e+00 -1.797059e-01
      vertex   -1.482949e-01 0.000000e+00 2.012675e-01
    endloop
  endfacet
  facet normal 0.000000e+00 -1.000000e+00 -0.000000e+00
    outer loop
      vertex   -1.482949e-01 0.000000e+00 2.012675e-01
      vertex   -1.737981e-01 0.000000e+00 -1.797059e-01
      vertex   -1.482949e-01 0.000000e+00 -2.012675e-01
    endloop
  endfacet
  facet normal 0.000000e+00 -1.000000e+00 0.000000e+00
    outer loop
      vertex   -1.482949e-01 0.000000e+00 2.012675e-01
      vertex   -1.482949e-01 0.000000e+00 -2.012675e-01
      vertex   -1.201454e-01 0.000000e+00 2.192375e-01
    endloop
  endfacet
  facet normal 0.000000e+00 -1.000000e+00 -0.000000e+00
    outer loop
      vertex   -1.201454e-01 0.000000e+00 2.192375e-01
      vertex   -1.482949e-01 0.000000e+00 -2.012675e-01
      vertex   -1.201454e-01 0.000000e+00 -2.192375e-01
    endloop
  endfacet
  facet normal 0.000000e+00 -1.000000e+00 0.000000e+00
    outer loop
      vertex   -1.201454e-01 0.000000e+00 2.192375e-01
      vertex   -1.201454e-01 0.000000e+00 -2.192375e-01
      vertex   -8.985194e-02 0.000000e+00 2.332952e-01
    endloop
  endfacet
  facet normal 0.000000e+00 -1.000000e+00 -0.000000e+00
    outer loop
      vertex   -8.985194e-02 0.000000e+00 2.332952e-01
      vertex   -1.201454e-01 0.000000e+00 -2.192375e-01
      vertex   -8.985194e-02 0.000000e+00 -2.332952e-01
    endloop
  endfacet
  facet normal 0.000000e+00 -1.000000e+00 0.000000e+00
    outer loop
      vertex   -8.985194e-02 0.000000e+00 2.332952e-01
      vertex   -8.985194e-02 0.000000e+00 -2.332952e-01
      vertex   -5.795504e-02 0.000000e+00 2.431897e-01
    endloop
  endfacet
  facet normal 0.000000e+00 -1.000000e+00 -0.000000e+00
    outer loop
      vertex   -5.795504e-02 0.000000e+00 2.431897e-01
      vertex   -8.985194e-02 0.000000e+00 -2.332952e-01
      vertex   -5.795504e-02 0.000000e+00 -2.431897e-01
    endloop
  endfacet
  facet normal 0.000000e+00 -1.000000e+00 0.000000e+00
    outer loop
      vertex   -5.795504e-02 0.000000e+00 2.431897e-01
      vertex   -5.795504e-02 0.000000e+00 -2.431897e-01
      vertex   -2.502392e-02 0.000000e+00 2.487444e-01
    endloop
  endfacet
  facet normal 0.000000e+00 -1.000000e+00 -0.000000e+00
    outer loop
      vertex   -2.502392e-02 0.000000e+00 2.487444e-01
      vertex   -5.795504e-02 0.000000e+00 -2.431897e-01
      vertex   -2.502392e-02 0.000000e+00 -2.487444e-01
    endloop
  endfacet
  facet normal 0.000000e+00 -1.000000e+00 0.000000e+00
    outer loop
      vertex   -2.502392e-02 0.000000e+00 2.487444e-01
      vertex   -2.502392e-02 0.000000e+00 -2.487444e-01
      vertex   8.353744e-03 0.000000e+00 2.498604e-01
    endloop
  endfacet
  facet normal 0.000000e+00 -1.000000e+00 -0.000000e+00
    outer loop
      vertex   8.353744e-03 0.000000e+00 2.498604e-01
      vertex   -2.502392e-02 0.000000e+00 -2.487444e-01
      vertex   8.353744e-03 0.000000e+00 -2.498604e-01
    endloop
  endfacet
  facet normal 0.000000e+00 -1.000000e+00 0.000000e+00
    outer loop
      vertex   8.353744e-03 0.000000e+00 2.498604e-01
      vertex   8.353744e-03 0.000000e+00 -2.498604e-01
      vertex   4.158234e-02 0.000000e+00 2.465176e-01
    endloop
  endfacet
  facet normal 0.000000e+00 -1.000000e+00 -0.000000e+00
    outer loop
      vertex   4.158234e-02 0.000000e+00 2.465176e-01
      vertex   8.353744e-03 0.000000e+00 -2.498604e-01
      vertex   4.158234e-02 0.000000e+00 -2.465176e-01
    endloop
  endfacet
  facet normal 0.000000e+00 -1.000000e+00 0.000000e+00
    outer loop
      vertex   4.158234e-02 0.000000e+00 2.465176e-01
      vertex   4.158234e-02 0.000000e+00 -2.465176e-01
      vertex   7.406889e-02 0.000000e+00 2.387756e-01
    endloop
  endfacet
  facet normal 0.000000e+00 -1.000000e+00 -0.000000e+00
    outer loop
      vertex   7.406889e-02 0.000000e+00 2.387756e-01
      vertex   4.158234e-02 0.000000e+00 -2.465176e-01
      vertex   7.406889e-02 0.000000e+00 -2.387756e-01
    endloop
  endfacet
  facet normal 0.000000e+00 -1.000000e+00 0.000000e+00
    outer loop
      vertex   7.406889e-02 0.000000e+00 2.387756e-01
      vertex   7.406889e-02 0.000000e+00 -2.387756e-01
      vertex   1.052337e-01 0.000000e+00 2.267727e-01
    endloop
  endfacet
  facet normal 0.000000e+00 -1.000000e+00 -0.000000e+00
    outer loop
      vertex   1.052337e-01 0.000000e+00 2.267727e-01
      vertex   7.406889e-02 0.000000e+00 -2.387756e-01
      vertex   1.052337e-01 0.000000e+00 -2.267727e-01
    endloop
  endfacet
  facet normal 0.000000e+00 -1.000000e+00 0.000000e+00
    outer loop
      vertex   1.052337e-01 0.000000e+00 2.267727e-01
      vertex   1.052337e-01 0.000000e+00 -2.267727e-01
      vertex   1.345206e-01 0.000000e+00 2.107231e-01
    endloop
  endfacet
  facet normal 0.000000e+00 -1.000000e+00 -0.000000e+00
    outer loop
      vertex   1.345206e-01 0.000000e+00 2.107231e-01
      vertex   1.052337e-01 0.000000e+00 -2.267727e-01
      vertex   1.345206e-01 0.000000e+00 -2.107231e-01
    endloop
  endfacet
  facet normal 0.000000e+00 -1.000000e+00 0.000000e+00
    outer loop
      vertex   1.345206e-01 0.000000e+00 2.107231e-01
      vertex   1.345206e-01 0.000000e+00 -2.107231e-01
      vertex   1.614070e-01 0.000000e+00 1.909130e-01
    endloop
  endfacet
  facet normal 0.000000e+00 -1.000000e+00 -0.000000e+00
    outer loop
      vertex   1.614070e-01 0.000000e+00 1.909130e-01
      vertex   1.345206e-01 0.000000e+00 -2.107231e-01
      vertex   1.614070e-01 0.000000e+00 -1.909130e-01
    endloop
  endfacet
  facet normal 0.000000e+00 -1.000000e+00 0.000000e+00
    outer loop
      vertex   1.614070e-01 0.000000e+00 1.909130e-01
      vertex   1.614070e-01 0.000000e+00 -1.909130e-01
      vertex   1.854130e-01 0.000000e+00 1.676962e-01
    endloop
  endfacet
  facet normal 0.000000e+00 -1.000000e+00 -0.000000e+00
    outer loop
      vertex   1.854130e-01 0.000000e+00 1.676962e-01
      vertex   1.614070e-01 0.000000e+00 -1.909130e-01
      vertex   1.854130e-01 0.000000e+00 -1.676962e-01
    endloop
  endfacet
  facet normal 0.000000e+00 -1.000000e+00 0.000000e+00
    outer loop
      vertex   1.854130e-01 0.000000e+00 1.676962e-01
      vertex   1.854130e-01 0.000000e+00 -1.676962e-01
      vertex   2.061104e-01 0.000000e+00 1.414868e-01
    endloop
  endfacet
  facet normal 0.000000e+00 -1.000000e+00 -0.000000e+00
    outer loop
      vertex   2.061104e-01 0.000000e+00 1.414868e-01
      vertex   1.854130e-01 0.000000e+00 -1.676962e-01
      vertex   2.061104e-01 0.000000e+00 -1.414868e-01
    endloop
  endfacet
  facet normal 0.000000e+00 -1.000000e+00 0.000000e+00
    outer loop
      vertex   2.061104e-01 0.000000e+00 1.414868e-01
      vertex   2.061104e-01 0.000000e+00 -1.414868e-01
      vertex   2.231297e-01 0.000000e+00 1.127525e-01
    endloop
  endfacet
  facet normal 0.000000e+00 -1.000000e+00 -0.000000e+00
    outer loop
      vertex   2.231297e-01 0.000000e+00 1.127525e-01
      vertex   2.061104e-01 0.000000e+00 -1.414868e-01
      vertex   2.231297e-01 0.000000e+00 -1.127525e-01
    endloop
  endfacet
  facet normal 0.000000e+00 -1.000000e+00 0.000000e+00
    outer loop
      vertex   2.231297e-01 0.000000e+00 1.127525e-01
      vertex   2.231297e-01 0.000000e+00 -1.127525e-01
      vertex   2.361673e-01 0.000000e+00 8.200622e-02
    endloop
  endfacet
  facet normal 0.000000e+00 -1.000000e+00 -0.000000e+00
    outer loop
      vertex   2.361673e-01 0.000000e+00 8.200622e-02
      vertex   2.231297e-01 0.000000e+00 -1.127525e-01
      vertex   2.361673e-01 0.000000e+00 -8.200622e-02
    endloop
  endfacet
  facet normal 0.000000e+00 -1.000000e+00 0.000000e+00
    outer loop
      vertex   2.361673e-01 0.000000e+00 8.200622e-02
      vertex   2.361673e-01 0.000000e+00 -8.200622e-02
      vertex   2.449904e-01 0.000000e+00 4.979650e-02
    endloop
  endfacet
  facet normal 0.000000e+00 -1.000000e+00 -0.000000e+00
    outer loop
      vertex   2.449904e-01 0.000000e+00 4.979650e-02
      vertex   2.361673e-01 0.000000e+00 -8.200622e-02
      vertex   2.449904e-01 0.000000e+00 -4.979650e-02
    endloop
  endfacet
  facet normal 0.000000e+00 -1.000000e+00 0.000000e+00
    outer loop
      vertex   2.449904e-01 0.000000e+00 4.979650e-02
      vertex   2.449904e-01 0.000000e+00 -4.979650e-02
      vertex   2.494417e-01 0.000000e+00 1.669816e-02
    endloop
  endfacet
  facet normal 0.000000e+00 -1.000000e+00 -0.000000e+00
    outer loop
      vertex   2.494417e-01 0.000000e+00 1.669816e-02
      vertex   2.449904e-01 0.000000e+00 -4.979650e-02
      vertex   2.494417e-01 0.000000e+00 -1.669816e-02
    endloop
  endfacet
  facet normal -0.000000e+00 1.000000e+00 0.000000e+00
    outer loop
      vertex   -2.500000e-01 9.000000e-01 0.000000e+00
      vertex   -2.477694e-01 9.000000e-01 3.332174e-02
      vertex   -2.477694e-01 9.000000e-01 -3.332174e-02
    endloop
  endfacet
  facet normal -0.000000e+00 1.000000e+00 0.000000e+00
    outer loop
      vertex   -2.477694e-01 9.000000e-01 -3.332174e-02
      vertex   -2.477694e-01 9.000000e-01 3.332174e-02
      vertex   -2.411173e-01 9.000000e-01 -6.604885e-02
    endloop
  endfacet
  facet normal 0.000000e+00 1.000000e+00 -0.000000e+00
    outer loop
      vertex   -2.411173e-01 9.000000e-01 -6.604885e-02
      vertex   -2.477694e-01 9.000000e-01 3.332174e-02
      vertex   -2.411173e-01 9.000000e-01 6.604885e-02
    endloop
  endfacet
  facet normal -0.000000e+00 1.000000e+00 0.000000e+00
    outer loop
      vertex   -2.411173e-01 9.000000e-01 -6.604885e-02
      vertex   -2.411173e-01 9.000000e-01 6.604885e-02
      vertex   -2.301625e-01 9.000000e-01 -9.759732e-02
    endloop
  endfacet
  facet normal 0.000000e+00 1.000000e+00 -0.000000e+00
    outer loop
      vertex   -2.301625e-01 9.000000e-01 -9.759732e-02
      vertex   -2.411173e-01 9.000000e-01 6.604885e-02
      vertex   -2.301625e-01 9.000000e-01 9.759732e-02
    endloop
  endfacet
  facet normal -0.000000e+00 1.000000e+00 0.000000e+00
    outer loop
      vertex   -2.301625e-01 9.000000e-01 -9.759732e-02
      vertex   -2.301625e-01 9.000000e-01 9.759732e-02
      vertex   -2.151004e-01 9.000000e-01 -1.274042e-01
    endloop
  endfacet
  facet normal 0.000000e+00 1.000000e+00 -0.000000e+00
    outer loop
      vertex   -2.151004e-01 9.000000e-01 -1.274042e-01
      vertex   -2.301625e-01 9.000000e-01 9.759732e-02
      vertex   -2.151004e-01 9.000000e-01 1.274042e-01
    endloop
  endfacet
  facet normal -0.000000e+00 1.000000e+00 0.000000e+00
    outer loop
      vertex   -2.151004e-01 9.000000e-01 -1.274042e-01
      vertex   -2.151004e-01 9.000000e-01 1.274042e-01
      vertex   -1.961999e-01 9.000000e-01 -1.549375e-01
    endloop
  endfacet
  facet normal 0.000000e+00 1.000000e+00 -0.000000e+00
    outer loop
      vertex   -1.961999e-01 9.000000e-01 -1.549375e-01
      vertex   -2.151004e-01 9.000000e-01 1.274042e-01
      vertex   -1.961999e-01 9.000000e-01 1.549375e-01
    endloop
  endfacet
  facet normal -0.000000e+00 1.000000e+00 0.000000e+00
    outer loop
      vertex   -1.961999e-01 9.000000e-01 -1.549375e-01
      vertex   -1.961999e-01 9.000000e-01 1.549375e-01
      vertex   -1.737981e-01 9.000000e-01 -1.797059e-01
    endloop
  endfacet
  facet normal 0.000000e+00 1.000000e+00 -0.000000e+00
    outer loop
      vertex   -1.737981e-01 9.000000e-01 -1.797059e-01
      vertex   -1.961999e-01 9.000000e-01 1.549375e-01
      vertex   -1.737981e-01 9.000000e-01 1.797059e-01
    endloop
  endfacet
  facet normal -0.000000e+00 1.000000e+00 0.000000e+00
    outer loop
      vertex   -1.737981e-01 9.000000e-01 -1.797059e-01
      vertex   -1.737981e-01 9.000000e-01 1.797059e-01
      vertex   -1.482949e-01 9.000000e-01 -2.012675e-01
    endloop
  endfacet
  facet normal 0.000000e+00 1.000000e+00 -0.000000e+00
    outer loop
      vertex   -1.482949e-01 9.000000e-01 -2.012675e-01
      vertex   -1.737981e-01 9.000000e-01 1.797059e-01
      vertex   -1.482949e-01 9.000000e-01 2.012675e-01
    endloop
  endfacet
  facet normal -0.000000e+00 1.000000e+00 0.000000e+00
    outer loop
      vertex   -1.482949e-01 9.000000e-01 -2.012675e-01
      vertex   -1.482949e-01 9.000000e-01 2.012675e-01
      vertex   -1.201454e-01 9.000000e-01 -2.192375e-01
    endloop
  endfacet
  facet normal 0.000000e+00 1.000000e+00 -0.000000e+00
    outer loop
      vertex   -1.201454e-01 9.000000e-01 -2.192375e-01
      vertex   -1.482949e-01 9.000000e-01 2.012675e-01
      vertex   -1.201454e-01 9.000000e-01 2.192375e-01
    endloop
  endfacet
  facet normal -0.000000e+00 1.000000e+00 0.000000e+00
    outer loop
      vertex   -1.201454e-01 9.000000e-01 -2.192375e-01
      vertex   -1.201454e-01 9.000000e-01 2.192375e-01
      vertex   -8.985194e-02 9.000000e-01 -2.332952e-01
    endloop
  endfacet
  facet normal 0.000000e+00 1.000000e+00 -0.000000e+00
    outer loop
      vertex   -8.985194e-02 9.000000e-01 -2.332952e-01
      vertex   -1.201454e-01 9.000000e-01 2.192375e-01
      vertex   -8.985194e-02 9.000000e-01 2.332952e-01
    endloop
  endfacet
  facet normal -0.000000e+00 1.000000e+00 0.000000e+00
    outer loop
      vertex   -8.985194e-02 9.000000e-01 -2.332952e-01
      vertex   -8.985194e-02 9.000000e-01 2.332952e-01
      vertex   -5.795504e-02 9.000000e-01 -2.431897e-01
    endloop
  endfacet
  facet normal 0.000000e+00 1.000000e+00 -0.000000e+00
    outer loop
      vertex   -5.795504e-02 9.000000e-01 -2.431897e-01
      vertex   -8.985194e-02 9.000000e-01 2.332952e-01
      vertex   -5.795504e-02 9.000000e-01 2.431897e-01
    endloop
  endfacet
  facet normal -0.000000e+00 1.000000e+00 0.000000e+00
    outer loop
      vertex   -5.795504e-02 9.000000e-01 -2.431897e-01
      vertex   -5.795504e-02 9.000000e-01 2.431897e-01
      vertex   -2.502392e-02 9.000000e-01 -2.487444e-01
    endloop
  endfacet
  facet normal 0.000000e+00 1.000000e+00 -0.000000e+00
    outer loop
      vertex   -2.502392e-02 9.000000e-01 -2.487444e-01
      vertex   -5.795504e-02 9.000000e-01 2.431897e-01
      vertex   -2.502392e-02 9.000000e-01 2.487444e-01
    endloop
  endfacet
  facet normal -0.000000e+00 1.000000e+00 0.000000e+00
    outer loop
      vertex   -2.502392e-02 9.000000e-01 -2.487444e-01
      vertex   -2.502392e-02 9.000000e-01 2.487444e-01
      vertex   8.353744e-03 9.000000e-01 -2.498604e-01
    endloop
  endfacet
  facet normal 0.000000e+00 1.000000e+00 -0.000000e+00
    outer loop
      vertex   8.353744e-03 9.000000e-01 -2.498604e-01
      vertex   -2.502392e-02 9.000000e-01 2.487444e-01
      vertex   8.353744e-03 9.000000e-01 2.498604e-01
    endloop
  endfacet
  facet normal 0.000000e+00 1.000000e+00 0.000000e+00
    outer loop
      vertex   8.353744e-03 9.000000e-01 -2.498604e-01
      vertex   8.353744e-03 9.000000e-01 2.498604e-01
      vertex   4.158234e-02 9.000000e-01 -2.465176e-01
    endloop
  endfacet
  facet normal 0.000000e+00 1.000000e+00 -0.000000e+00
    outer loop
      vertex   4.158234e-02 9.000000e-01 -2.465176e-01
      vertex   8.353744e-03 9.000000e-01 2.498604e-01
      vertex   4.158234e-02 9.000000e-01 2.465176e-01
    endloop
  endfacet
  facet normal 0.000000e+00 1.000000e+00 0.000000e+00
    outer loop
      vertex   4.158234e-02 9.000000e-01 -2.465176e-01
      vertex   4.158234e-02 9.000000e-01 2.465176e-01
      vertex   7.406889e-02 9.000000e-01 -2.387756e-01
    endloop
  endfacet
  facet normal 0.000000e+00 1.000000e+00 -0.000000e+00
    outer loop
      vertex   7.406889e-02 9.000000e-01 -2.387756e-01
      vertex   4.158234e-02 9.000000e-01 2.465176e-01
      vertex   7.406889e-02 9.000000e-01 2.387756e-01
    endloop
  endfacet
  facet normal 0.000000e+00 1.000000e+00 0.000000e+00
    outer loop
      vertex   7.406889e-02 9.000000e-01 -2.387756e-01
      vertex   7.406889e-02 9.000000e-01 2.387756e-01
      vertex   1.052337e-01 9.000000e-01 -2.267727e-01
    endloop
  endfacet
  facet normal 0.000000e+00 1.000000e+00 -0.000000e+00
    outer loop
      vertex   1.052337e-01 9.000000e-01 -2.267727e-01
      vertex   7.406889e-02 9.000000e-01 2.387756e-01
      vertex   1.052337e-01 9.000000e-01 2.267727e-01
    endloop
  endfacet
  facet normal 0.000000e+00 1.000000e+00 0.000000e+00
    outer loop
      vertex   1.052337e-01 9.000000e-01 -2.267727e-01
      vertex   1.052337e-01 9.000000e-01 2.267727e-01
      vertex   1.345206e-01 9.000000e-01 -2.107231e-01
    endloop
  endfacet
  facet normal 0.000000e+00 1.000000e+00 -0.000000e+00
    outer loop
      vertex   1.345206e-01 9.000000e-01 -2.107231e-01
      vertex   1.052337e-01 9.000000e-01 2.267727e-01
      vertex   1.345206e-01 9.000000e-01 2.107231e-01
    endloop
  endfacet
  facet normal 0.000000e+00 1.000000e+00 0.000000e+00
    outer loop
      vertex   1.345206e-01 9.000000e-01 -2.107231e-01
      vertex   1.345206e-01 9.000000e-01 2.107231e-01
      vertex   1.614070e-01 9.000000e-01 -1.909130e-01
    endloop
  endfacet
  facet normal 0.000000e+00 1.000000e+00 -0.000000e+00
    outer loop
      vertex   1.614070e-01 9.000000e-01 -1.909130e-01
      vertex   1.345206e-01 9.000000e-01 2.107231e-01
      vertex   1.614070e-01 9.000000e-01 1.909130e-01
    endloop
  endfacet
  facet normal 0.000000e+00 1.000000e+00 0.000000e+00
    outer loop
      vertex   1.614070e-01 9.000000e-01 -1.909130e-01
      vertex   1.614070e-01 9.000000e-01 1.909130e-01
      vertex   1.854130e-01 9.000000e-01 -1.676962e-01
    endloop
  endfacet
  facet normal 0.000000e+00 1.000000e+00 -0.000000e+00
    outer loop
      vertex   1.854130e-01 9.000000e-01 -1.676962e-01
      vertex   1.614070e-01 9.000000e-01 1.909130e-01
      vertex   1.854130e-01 9.000000e-01 1.676962e-01
    endloop
  endfacet
  facet normal 0.000000e+00 1.000000e+00 0.000000e+00
    outer loop
      vertex   1.854130e-01 9.000000e-01 -1.676962e-01
      vertex   1.854130e-01 9.000000e-01 1.676962e-01
      vertex   2.061104e-01 9.000000e-01 -1.414868e-01
    endloop
  endfacet
  facet normal 0.000000e+00 1.000000e+00 -0.000000e+00
    outer loop
      vertex   2.061104e-01 9.000000e-01 -1.414868e-01
      vertex   1.854130e-01 9.000000e-01 1.676962e-01
      vertex   2.061104e-01 9.000000e-01 1.414868e-01
    endloop
  endfacet
  facet normal 0.000000e+00 1.000000e+00 0.000000e+00
    outer loop
      vertex   2.061104e-01 9.000000e-01 -1.414868e-01
      vertex   2.061104e-01 9.000000e-01 1.414868e-01
      vertex   2.231297e-01 9.000000e-01 -1.127525e-01
    endloop
  endfacet
  facet normal 0.000000e+00 1.000000e+00 -0.000000e+00
    outer loop
      vertex   2.231297e-01 9.000000e-01 -1.127525e-01
      vertex   2.061104e-01 9.000000e-01 1.414868e-01
      vertex   2.231297e-01 9.000000e-01 1.127525e-01
    endloop
  endfacet
  facet normal 0.000000e+00 1.000000e+00 0.000000e+00
    outer loop
      vertex   2.231297e-01 9.000000e-01 -1.127525e-01
      vertex   2.231297e-01 9.000000e-01 1.127525e-01
      vertex   2.361673e-01 9.000000e-01 -8.200622e-02
    endloop
  endfacet
  facet normal 0.000000e+00 1.000000e+00 -0.000000e+00
    outer loop
      vertex   2.361673e-01 9.000000e-01 -8.200622e-02
      vertex   2.231297e-01 9.000000e-01 1.127525e-01
      vertex   2.361673e-01 9.000000e-01 8.200622e-02
    endloop
  endfacet
  facet normal 0.000000e+00 1.000000e+00 0.000000e+00
    outer loop
      vertex   2.361673e-01 9.000000e-01 -8.200622e-02
      vertex   2.361673e-01 9.000000e-01 8.200622e-02
      vertex   2.449904e-01 9.000000e-01 -4.979650e-02
    endloop
  endfacet
  facet normal 0.000000e+00 1.000000e+00 -0.000000e+00
    outer loop
      vertex   2.449904e-01 9.000000e-01 -4.979650e-02
      vertex   2.361673e-01 9.000000e-01 8.200622e-02
      vertex   2.449904e-01 9.000000e-01 4.979650e-02
    endloop
  endfacet
  facet normal 0.000000e+00 1.000000e+00 0.000000e+00
    outer loop
      vertex   2.449904e-01 9.000000e-01 -4.979650e-02
      vertex   2.449904e-01 9.000000e-01 4.979650e-02
      vertex   2.494417e-01 9.000000e-01 -1.669816e-02
    endloop
  endfacet
  facet normal 0.000000e+00 1.000000e+00 -0.000000e+00
    outer loop
      vertex   2.494417e-01 9.000000e-01 -1.669816e-02
      vertex   2.449904e-01 9.000000e-01 4.979650e-02
      vertex   2.494417e-01 9.000000e-01 1.669816e-02
    endloop
  endfacet
endsolid
